<?xml version="1.0" encoding="UTF-8"?>
<svg version="1.1" xmlns="http://www.w3.org/2000/svg" width="1080" height="1080">
<path d="M0 0 C8.003548 3.06272956 15.42719173 7.93460757 22.73046875 12.375 C28.44021537 15.78435111 34.33288375 18.86901241 40.21875 21.9609375 C47.60316959 25.84191568 54.91648465 29.7772626 62.09765625 34.02734375 C68.39650326 37.72641187 74.78698177 41.26619072 81.1640625 44.828125 C81.91059082 45.24529785 82.65711914 45.6624707 83.42626953 46.09228516 C92.07583357 50.92203749 100.74739611 55.70164263 109.48046875 60.37890625 C111.60053151 61.52380186 113.70190077 62.68743765 115.7890625 63.890625 C118.58311155 65.49461612 121.39377383 67.04455435 124.2265625 68.578125 C133.50925734 73.62750296 142.69837799 78.84933821 151.6875 84.40625 C153.75680626 85.59430596 155.8271825 86.67085673 157.96484375 87.7265625 C162.05195665 89.74724332 166.01639345 91.94581888 169.9765625 94.203125 C171.39162028 95.00444828 172.80698536 95.80522914 174.22265625 96.60546875 C174.90183105 96.98944824 175.58100586 97.37342773 176.28076172 97.76904297 C178.68851169 99.12305118 181.11101583 100.4484003 183.5390625 101.765625 C194.19775506 107.55453669 204.85686992 113.34635266 215.2109375 119.66796875 C216.82220476 120.6250615 218.48782654 121.49000702 220.1640625 122.328125 C222.89102489 123.69160619 225.43741356 125.18012162 228.0390625 126.765625 C231.59439632 128.92101311 235.161223 130.88378325 238.8984375 132.69921875 C246.46286376 136.46838977 253.84119554 140.6121453 261.1640625 144.828125 C270.99027464 150.47782961 270.99027464 150.47782961 280.9140625 155.953125 C284.4128717 157.84340405 287.83345867 159.81676838 291.2265625 161.890625 C294.47632076 163.86717623 297.74627698 165.65922193 301.1640625 167.328125 C305.46370811 169.42763994 309.52041895 171.79964511 313.6015625 174.29296875 C318.04101485 176.95257968 322.60833466 179.37504078 327.1640625 181.828125 C335.84507615 186.54685026 344.51693938 191.26422456 353.0390625 196.265625 C357.63359764 198.95539055 362.26863135 201.54585394 366.94921875 204.08203125 C371.21634719 206.39965751 375.47407273 208.7337607 379.7265625 211.078125 C380.92466553 211.73325073 380.92466553 211.73325073 382.14697266 212.40161133 C382.89640137 212.81564209 383.64583008 213.22967285 384.41796875 213.65625 C385.09158447 214.0265332 385.7652002 214.39681641 386.45922852 214.77832031 C388.1640625 215.828125 388.1640625 215.828125 390.1640625 217.828125 C390.35706998 220.29932831 390.42463146 222.65795632 390.40457153 225.12991333 C390.40713481 226.27178771 390.40713481 226.27178771 390.40974987 227.43673027 C390.413058 230.00104586 390.40201947 232.56510283 390.39111328 235.12939453 C390.39054945 236.96217849 390.39086517 238.79496289 390.39199829 240.62774658 C390.39257391 245.61511167 390.38078583 250.60238124 390.36685038 255.58972406 C390.3543778 260.7974312 390.35317527 266.00514034 390.35079956 271.21286011 C390.34457455 281.07970319 390.32814996 290.94650214 390.30810058 300.81332576 C390.28577329 312.04410755 390.27475614 323.27489141 390.26470971 334.50568986 C390.2437846 357.61319274 390.20858884 380.7206564 390.1640625 403.828125 C387.1640625 404.828125 387.1640625 404.828125 384.58984375 403.7109375 C383.56246094 403.13085938 382.53507813 402.55078125 381.4765625 401.953125 C380.9084082 401.63649902 380.34025391 401.31987305 379.75488281 400.99365234 C377.88533748 399.94866851 376.024456 398.88930524 374.1640625 397.828125 C372.24246763 396.74108239 370.31971329 395.6561149 368.39672852 394.5715332 C367.06194508 393.81859109 365.7278093 393.06449981 364.39428711 392.30932617 C359.48703833 389.54049036 354.52879492 386.88243986 349.5390625 384.265625 C343.05600963 380.86478805 336.68415144 377.31137361 330.34375 373.65234375 C326.67664737 371.54849003 322.97082734 369.52573326 319.25390625 367.51171875 C308.85694267 361.84662229 298.52912573 356.05264213 288.21972656 350.22998047 C284.65118924 348.2170276 281.07279811 346.22413073 277.48046875 344.25390625 C262.88582207 336.23752813 262.88582207 336.23752813 256.98828125 331.984375 C254.81107284 330.60438851 252.55731917 329.7795726 250.1640625 328.828125 C248.62493167 327.94252459 247.10436967 327.02405439 245.6015625 326.078125 C241.90736908 323.81782591 238.17973399 321.79261775 234.2890625 319.890625 C229.07688071 317.33458707 224.08940621 314.50687238 219.09765625 311.546875 C216.31401144 309.91597791 213.50328712 308.35975837 210.6640625 306.828125 C205.7618397 304.17979774 200.95827511 301.38368125 196.15625 298.55859375 C193.22725183 296.86466922 190.26869474 295.2434895 187.2890625 293.640625 C184.36043943 292.06270309 181.5255382 290.46992325 178.7890625 288.578125 C176.31686098 286.79665005 176.31686098 286.79665005 173.90722656 285.9387207 C170.66647167 284.62667068 167.70560139 283.00544597 164.6484375 281.30859375 C164.033172 280.96814529 163.41790649 280.62769684 162.78399658 280.27693176 C160.82582007 279.19256603 158.86991802 278.10417042 156.9140625 277.015625 C155.61603374 276.29595637 154.3178579 275.57655294 153.01953125 274.85742188 C149.39910041 272.85113807 145.78144108 270.83990669 142.1640625 268.828125 C140.42581508 267.86322031 138.68753956 266.89836622 136.94921875 265.93359375 C132.41864338 263.41892921 127.91776091 260.85763428 123.44921875 258.234375 C122.44761719 257.6465625 121.44601562 257.05875 120.4140625 256.453125 C119.49109375 255.90914062 118.568125 255.36515625 117.6171875 254.8046875 C112.84019176 252.07034379 108.00217936 249.45240967 103.1640625 246.828125 C87.9768088 238.57376295 72.84811676 230.236736 57.8515625 221.640625 C52.82526616 218.76192801 47.76891049 215.94987479 42.67578125 213.19140625 C39.58987856 211.51647617 36.5237289 209.80740804 33.45703125 208.09765625 C30.97169542 206.72161853 28.47455028 205.36854977 25.9765625 204.015625 C8.87789342 194.70661758 8.87789342 194.70661758 3.5625 191.02734375 C0.52255872 189.50737311 -0.60647222 189.93831608 -3.8359375 190.828125 C-6.0541409 191.86480147 -6.0541409 191.86480147 -8.19921875 193.19140625 C-9.00423828 193.66642578 -9.80925781 194.14144531 -10.63867188 194.63085938 C-11.46689453 195.12908203 -12.29511719 195.62730469 -13.1484375 196.140625 C-18.37415308 199.25460705 -23.5689014 202.29588959 -29.06030273 204.92114258 C-30.98632921 205.90494408 -32.77467691 207.0227249 -34.5859375 208.203125 C-37.86000737 210.30238156 -41.2181836 212.05497955 -44.7109375 213.765625 C-49.46236254 216.09651276 -53.9860439 218.64179606 -58.49609375 221.40625 C-61.34722577 223.13882438 -64.25324457 224.75120667 -67.17578125 226.359375 C-70.63476743 228.26918235 -74.07954282 230.20376527 -77.5234375 232.140625 C-78.21155518 232.52750488 -78.89967285 232.91438477 -79.60864258 233.31298828 C-84.13352394 235.86050862 -88.64453109 238.43124209 -93.1484375 241.015625 C-97.2290069 243.35398074 -101.32404369 245.65350646 -105.4609375 247.890625 C-109.2161939 249.92152897 -112.91005723 252.03190505 -116.5859375 254.203125 C-121.82768646 257.28811267 -127.16292963 260.15131719 -132.54321289 262.98339844 C-135.78267538 264.69872792 -138.94809148 266.45830596 -142.0234375 268.453125 C-145.14466061 270.47751916 -148.37075577 272.12728491 -151.7109375 273.765625 C-156.45545759 276.09312542 -160.97325752 278.63374715 -165.4765625 281.39453125 C-170.01291165 284.1508891 -174.68561572 286.66281087 -179.3515625 289.19140625 C-185.20381364 292.36565358 -191.00246895 295.62035816 -196.77734375 298.93237305 C-202.22688122 302.05700459 -207.69531726 305.14253926 -213.23046875 308.11328125 C-219.861917 311.68253151 -226.35665693 315.45376362 -232.82226562 319.31323242 C-236.76006031 321.65324765 -240.72650414 323.79836439 -244.8359375 325.828125 C-247.01108386 327.04222279 -249.17730895 328.27239617 -251.3359375 329.515625 C-252.55726285 330.21749807 -253.77861797 330.91931933 -255 331.62109375 C-255.62551758 331.98122559 -256.25103516 332.34135742 -256.89550781 332.71240234 C-260.16329872 334.591341 -263.43742796 336.45917356 -266.7109375 338.328125 C-267.89586209 339.00515801 -269.08076063 339.6822366 -270.265625 340.359375 C-271.11382812 340.8440625 -271.96203125 341.32875 -272.8359375 341.828125 C-269.05588167 344.91185475 -264.84944845 347.1231505 -260.5859375 349.453125 C-258.96596157 350.34601994 -257.34617369 351.23925613 -255.7265625 352.1328125 C-254.90994141 352.58237305 -254.09332031 353.03193359 -253.25195312 353.49511719 C-249.60465995 355.50746771 -245.96806618 357.53855178 -242.3359375 359.578125 C-241.67207031 359.9505835 -241.00820313 360.32304199 -240.32421875 360.70678711 C-236.70376332 362.7469356 -233.12935586 364.84330642 -229.5859375 367.015625 C-225.15310479 369.713871 -220.55913197 371.98183614 -215.90234375 374.265625 C-211.79174455 376.36019784 -207.8493377 378.70148991 -203.8828125 381.0546875 C-200.84005164 382.82573036 -197.75921474 384.49237736 -194.6484375 386.140625 C-189.51390918 388.87332145 -184.51434176 391.7798989 -179.5234375 394.765625 C-173.33987988 398.45822546 -167.06155975 401.77814304 -160.5859375 404.92504883 C-155.10738135 407.61735618 -150.00048528 410.70535587 -144.8359375 413.96484375 C-141.24668147 416.19410824 -137.57075356 418.20450822 -133.84765625 420.19921875 C-130.1517516 422.19817107 -126.4940756 424.26109524 -122.8359375 426.328125 C-118.14987099 428.97578842 -113.45079618 431.58988361 -108.7109375 434.140625 C-105.86637772 435.67787961 -103.12288955 437.24299139 -100.4609375 439.078125 C-97.97054213 440.87173175 -97.97054213 440.87173175 -95.45703125 441.765625 C-92.84843727 442.82305803 -90.65241209 444.08069937 -88.2734375 445.578125 C-84.57924408 447.83842409 -80.85160899 449.86363225 -76.9609375 451.765625 C-71.74875571 454.32166293 -66.76128121 457.14937762 -61.76953125 460.109375 C-58.98588644 461.74027209 -56.17516212 463.29649163 -53.3359375 464.828125 C-49.45748926 466.92337865 -45.63657014 469.09476355 -41.8359375 471.328125 C-36.23338805 474.61862623 -30.54994209 477.73665747 -24.8359375 480.828125 C-20.60818438 483.14511425 -16.40209734 485.49454743 -12.234375 487.91796875 C-11.60184814 488.28422363 -10.96932129 488.65047852 -10.31762695 489.02783203 C-9.05357725 489.76075896 -7.79163084 490.49732731 -6.53198242 491.23779297 C-3.39129872 493.19643505 -3.39129872 493.19643505 0.1640625 493.828125 C2.34342951 492.65986568 4.4723706 491.45711721 6.6015625 490.203125 C7.87711256 489.46269412 9.15315977 488.72311907 10.4296875 487.984375 C11.06326172 487.61699219 11.69683594 487.24960937 12.34960938 486.87109375 C16.57583609 484.4418095 20.87603584 482.14580657 25.1640625 479.828125 C28.83327564 477.83276709 32.49903955 475.83116561 36.1640625 473.828125 C37.00582031 473.37179687 37.84757813 472.91546875 38.71484375 472.4453125 C39.89626953 471.79949219 39.89626953 471.79949219 41.1015625 471.140625 C41.79121094 470.76550781 42.48085938 470.39039063 43.19140625 470.00390625 C45.30235815 468.74569532 47.22402382 467.33415055 49.1640625 465.828125 C48.49503906 465.57160156 47.82601562 465.31507813 47.13671875 465.05078125 C34.5269994 460.02381931 20.39975269 453.90695586 10.1640625 444.828125 C10.1640625 444.168125 10.1640625 443.508125 10.1640625 442.828125 C9.5664209 442.7149292 8.9687793 442.6017334 8.35302734 442.48510742 C4.77289555 441.41058872 2.42989133 438.6749688 -0.2109375 436.140625 C-0.76265625 435.62306641 -1.314375 435.10550781 -1.8828125 434.57226562 C-3.54687111 433.00390991 -5.19274013 431.41830031 -6.8359375 429.828125 C-7.7026709 429.00513916 -7.7026709 429.00513916 -8.58691406 428.16552734 C-10.04242171 426.75916337 -11.44421193 425.29763583 -12.8359375 423.828125 C-12.8359375 423.168125 -12.8359375 422.508125 -12.8359375 421.828125 C-13.4959375 421.828125 -14.1559375 421.828125 -14.8359375 421.828125 C-24.8359375 410.76788404 -24.8359375 410.76788404 -24.8359375 404.828125 C-25.4959375 404.828125 -26.1559375 404.828125 -26.8359375 404.828125 C-27.8359375 402.828125 -28.8359375 400.828125 -29.8359375 398.828125 C-30.2484375 398.085625 -30.6609375 397.343125 -31.0859375 396.578125 C-31.3334375 396.000625 -31.5809375 395.423125 -31.8359375 394.828125 C-31.5059375 394.168125 -31.1759375 393.508125 -30.8359375 392.828125 C-31.4959375 392.828125 -32.1559375 392.828125 -32.8359375 392.828125 C-37.31017328 381.47176319 -41.00290064 370.43296199 -42.3984375 358.265625 C-42.45731476 355.00269001 -42.45731476 355.00269001 -43.8359375 353.828125 C-44.09063883 349.77216685 -44.02117399 345.70362253 -44.0234375 341.640625 C-44.03568359 340.50302734 -44.04792969 339.36542969 -44.06054688 338.19335938 C-44.06248047 337.08927734 -44.06441406 335.98519531 -44.06640625 334.84765625 C-44.07051514 333.83807861 -44.07462402 332.82850098 -44.07885742 331.78833008 C-43.8123271 328.5404103 -42.91289152 325.89211631 -41.8359375 322.828125 C-41.79512967 320.82854136 -41.79339394 318.82767246 -41.8359375 316.828125 C-41.26053872 312.99213313 -40.08142938 309.49540665 -38.8359375 305.828125 C-38.37715015 304.20325313 -37.91885705 302.57824165 -37.4609375 300.953125 C-36.06707862 296.26469059 -34.15075436 292.12173692 -31.8359375 287.828125 C-31.3409375 286.838125 -30.8459375 285.848125 -30.3359375 284.828125 C-28.50260417 281.16145833 -26.66927083 277.49479167 -24.8359375 273.828125 C-24.1759375 273.828125 -23.5159375 273.828125 -22.8359375 273.828125 C-22.5884375 273.126875 -22.3409375 272.425625 -22.0859375 271.703125 C-20.66413512 268.43297952 -18.96347462 265.687003 -16.8359375 262.828125 C-16.1759375 262.828125 -15.5159375 262.828125 -14.8359375 262.828125 C-14.57683594 262.25191406 -14.31773437 261.67570312 -14.05078125 261.08203125 C-12.73994368 258.65002713 -11.23995916 256.82100079 -9.3984375 254.765625 C-8.80160156 254.09402344 -8.20476562 253.42242188 -7.58984375 252.73046875 C-7.01105469 252.10269531 -6.43226563 251.47492188 -5.8359375 250.828125 C-5.37058594 250.25191406 -4.90523437 249.67570313 -4.42578125 249.08203125 C-2.8359375 247.828125 -2.8359375 247.828125 -0.4375 247.4765625 C2.59175653 247.88592149 4.23593954 248.78804481 6.7890625 250.453125 C13.09483906 254.43032823 19.6156145 257.93011793 26.1875 261.4453125 C34.22650538 265.75263143 42.18577874 270.18703658 50.12451172 274.67529297 C53.42740465 276.54221426 56.73285666 278.40457816 60.0390625 280.265625 C60.69366455 280.63413574 61.3482666 281.00264648 62.02270508 281.38232422 C67.81690286 284.64037198 73.627963 287.86771053 79.44165039 291.09082031 C84.46535938 293.87797991 89.47422673 296.69032124 94.4765625 299.515625 C99.17981539 302.17039079 103.90176638 304.78003298 108.6640625 307.328125 C118.02963279 312.34248623 127.35600572 317.46156771 136.4140625 323.015625 C140.84689521 325.713871 145.44086803 327.98183614 150.09765625 330.265625 C154.20661068 332.35935974 158.14743387 334.70007794 162.11328125 337.05078125 C165.18045084 338.83767262 168.28282244 340.53132852 171.4140625 342.203125 C181.69556389 347.69564375 191.85398318 353.39126021 201.8203125 359.4375 C207.17707368 362.61584497 212.69619749 365.50810418 218.1875 368.4453125 C224.78631798 371.98097547 231.33617275 375.59067367 237.85449219 379.27172852 C244.52189316 383.03627753 251.21471603 386.754362 257.91015625 390.46875 C258.60463867 390.85409912 259.29912109 391.23944824 260.01464844 391.63647461 C261.50693364 392.4638081 262.9998151 393.29006666 264.49316406 394.11547852 C268.70685072 396.44796081 272.8918611 398.81607403 277.0390625 401.265625 C281.60230934 403.93609652 286.2009621 406.51668118 290.8515625 409.03125 C296.18678177 411.92535479 301.49946861 414.86041507 306.81591797 417.78881836 C311.29805019 420.25631453 315.78682765 422.70993126 320.2890625 425.140625 C324.59158042 427.47762845 328.77586702 429.9834419 332.9609375 432.5234375 C335.62995583 434.10402637 338.37845129 435.46495356 341.1640625 436.828125 C343.35944942 438.02560878 345.54087315 439.24666391 347.72265625 440.46875 C350.10885064 441.79738304 352.50975275 443.09511737 354.9140625 444.390625 C361.58275822 448.0142975 368.1528318 451.81090558 374.72753906 455.60180664 C375.59991211 456.10317139 376.47228516 456.60453613 377.37109375 457.12109375 C378.61366943 457.83531494 378.61366943 457.83531494 379.88134766 458.56396484 C381.79233741 459.62226484 383.76041715 460.5765798 385.73828125 461.50390625 C388.1640625 462.828125 388.1640625 462.828125 389.1640625 465.828125 C386.79391647 468.47070161 384.32781282 469.96418309 381.1953125 471.609375 C377.25139229 473.71106932 373.33244062 475.84167732 369.4453125 478.046875 C368.49269531 478.58699219 367.54007813 479.12710937 366.55859375 479.68359375 C365.60339844 480.22628906 364.64820313 480.76898437 363.6640625 481.328125 C357.00818529 485.10966927 350.33439781 488.84973148 343.60546875 492.5 C341.28408778 493.76283125 338.97216767 495.04122107 336.6640625 496.328125 C333.48735163 498.09856704 330.29824273 499.84400935 327.1015625 501.578125 C322.76841087 503.93787973 318.46095181 506.34065884 314.1640625 508.765625 C303.19387189 514.95604467 292.17269391 521.05514975 281.15820312 527.16625977 C278.50435037 528.63925191 275.85164268 530.1142811 273.19921875 531.58984375 C269.06399326 533.88766346 264.90908851 536.14804788 260.75 538.40234375 C258.52637839 539.62835869 256.34384961 540.90169092 254.1640625 542.203125 C251.1640625 543.828125 251.1640625 543.828125 248.1640625 543.828125 C248.1640625 544.488125 248.1640625 545.148125 248.1640625 545.828125 C247.1328125 546.323125 246.1015625 546.818125 245.0390625 547.328125 C240.60041268 549.54744991 236.31003131 551.99901301 232.01220703 554.47802734 C227.0098087 557.35891394 221.96750734 560.16291802 216.9140625 562.953125 C211.28714049 566.06193469 205.73519895 569.25386291 200.24609375 572.6015625 C197.64785316 574.13223332 194.97937048 575.46148798 192.26953125 576.78125 C184.75282852 580.5186829 177.49118472 584.76315831 170.21191406 588.9387207 C166.38712394 591.13247361 162.54753944 593.29486728 158.6875 595.42578125 C156.62557859 596.57164779 154.56937812 597.72633259 152.515625 598.88671875 C146.2594653 602.42086564 140.00058635 605.93918812 133.6640625 609.328125 C125.41237769 613.74394647 117.27687532 618.36429579 109.13476562 622.97802734 C101.22857086 627.45731145 93.29129851 631.84860993 85.25244141 636.08569336 C81.44050356 638.10782398 77.79297744 640.27501639 74.17578125 642.62109375 C71.61601309 644.15695465 68.96898693 645.45113735 66.2890625 646.765625 C61.74207093 648.99953255 57.4232675 651.42094444 53.109375 654.0703125 C49.25828915 656.36870591 45.33956841 658.53496054 41.4140625 660.703125 C35.82829321 663.788917 30.25888305 666.8974281 24.7265625 670.078125 C18.91550406 673.411235 13.06642884 676.65979792 7.1640625 679.828125 C5.4934375 680.75625 5.4934375 680.75625 3.7890625 681.703125 C0.77934247 682.99300501 -0.60957818 683.44266963 -3.8359375 682.828125 C-5.83414914 681.75859763 -7.69695044 680.56600863 -9.57788086 679.30175781 C-11.66152961 677.94194553 -13.76163894 676.70953559 -15.94140625 675.51171875 C-16.72789551 675.07883545 -17.51438477 674.64595215 -18.32470703 674.19995117 C-22.67982653 671.82085177 -27.03816374 669.44776357 -31.3984375 667.078125 C-38.78847025 663.05577281 -46.15105272 658.99080066 -53.47509766 654.84960938 C-57.99794146 652.29337291 -62.54373904 649.78417225 -67.11328125 647.3125 C-70.23134984 645.61254869 -73.33526989 643.88808239 -76.4387207 642.16162109 C-78.76022171 640.8702433 -81.08302282 639.58123802 -83.40625 638.29296875 C-84.92447917 637.45052083 -86.44270833 636.60807292 -87.9609375 635.765625 C-89.09982422 635.13430664 -89.09982422 635.13430664 -90.26171875 634.49023438 C-93.71182633 632.57515745 -97.15576244 630.65179544 -100.578125 628.6875 C-103.31084757 627.12781661 -106.06037999 625.62181194 -108.8359375 624.140625 C-113.45404889 621.63437722 -117.96541366 618.98277992 -122.4609375 616.265625 C-129.81246273 611.82669184 -137.19015126 607.62460015 -144.8984375 603.828125 C-149.0332651 601.78159417 -152.93752718 599.59529813 -156.80859375 597.09375 C-160.00567721 595.09788287 -163.33160562 593.34990385 -166.6484375 591.5625 C-171.09635868 589.14230759 -175.50103365 586.64731544 -179.90966797 584.15649414 C-183.90589145 581.90247132 -187.92054757 579.68994928 -191.9609375 577.515625 C-194.80549728 575.97837039 -197.54898545 574.41325861 -200.2109375 572.578125 C-202.70133287 570.78451825 -202.70133287 570.78451825 -205.21484375 569.890625 C-207.82343773 568.83319197 -210.01946291 567.57555063 -212.3984375 566.078125 C-216.09263092 563.81782591 -219.82026601 561.79261775 -223.7109375 559.890625 C-228.92311929 557.33458707 -233.91059379 554.50687238 -238.90234375 551.546875 C-241.68598856 549.91597791 -244.49671288 548.35975837 -247.3359375 546.828125 C-251.21438574 544.73287135 -255.03530486 542.56148645 -258.8359375 540.328125 C-263.50151464 537.58792833 -268.21002051 534.95023017 -272.97265625 532.3828125 C-279.49761812 528.83992734 -285.95678484 525.19196011 -292.38476562 521.47631836 C-300.48418834 516.80086515 -308.59686119 512.28885661 -317.0234375 508.23046875 C-319.72160332 506.88513329 -322.2695716 505.40776 -324.8359375 503.828125 C-326.45623057 502.90224324 -328.07676431 501.97677658 -329.69921875 501.0546875 C-333.27746618 499.00062956 -336.82837604 496.89962072 -340.3828125 494.8046875 C-345.15980397 492.07034623 -349.99870959 489.45402559 -354.8359375 486.828125 C-356.66950559 485.82855552 -358.50284216 484.8285612 -360.3359375 483.828125 C-361.6971875 483.085625 -361.6971875 483.085625 -363.0859375 482.328125 C-371.3359375 477.828125 -371.3359375 477.828125 -374.07958984 476.33032227 C-375.93266957 475.32040202 -377.78718876 474.31311899 -379.64306641 473.30834961 C-385.55922126 470.10010453 -391.40419468 466.79235688 -397.2109375 463.390625 C-402.80140748 460.12568868 -408.41269818 456.9556827 -414.1484375 453.953125 C-418.53754957 451.61861003 -422.3138868 449.3501757 -425.8359375 445.828125 C-425.8359375 445.168125 -425.8359375 444.508125 -425.8359375 443.828125 C-426.41859375 443.72371094 -427.00125 443.61929687 -427.6015625 443.51171875 C-430.17239173 442.72518883 -431.5699433 441.65246609 -433.5859375 439.890625 C-434.19953125 439.36597656 -434.813125 438.84132813 -435.4453125 438.30078125 C-436.8359375 436.828125 -436.8359375 436.828125 -436.8359375 434.828125 C-437.4959375 434.828125 -438.1559375 434.828125 -438.8359375 434.828125 C-438.8359375 433.838125 -438.8359375 432.848125 -438.8359375 431.828125 C-439.4753125 431.56 -440.1146875 431.291875 -440.7734375 431.015625 C-442.8359375 429.828125 -442.8359375 429.828125 -443.8359375 426.828125 C-444.8259375 426.498125 -445.8159375 426.168125 -446.8359375 425.828125 C-446.8359375 424.838125 -446.8359375 423.848125 -446.8359375 422.828125 C-447.4959375 422.828125 -448.1559375 422.828125 -448.8359375 422.828125 C-457.05721644 412.86935928 -464.46989246 400.37429288 -467.8359375 387.828125 C-467.5059375 387.168125 -467.1759375 386.508125 -466.8359375 385.828125 C-467.4959375 385.498125 -468.1559375 385.168125 -468.8359375 384.828125 C-469.8359375 382.203125 -469.8359375 382.203125 -470.8359375 378.828125 C-471.1865625 377.735 -471.5371875 376.641875 -471.8984375 375.515625 C-472.78320136 372.03555382 -473.22604415 368.80069584 -473.4921875 365.234375 C-473.78002712 362.68947466 -473.78002712 362.68947466 -474.85546875 359.83203125 C-476.45763541 354.43396204 -476.08516136 348.84351295 -476.0234375 343.265625 C-476.02279297 342.15509766 -476.02214844 341.04457031 -476.02148438 339.90039062 C-475.99370703 334.74306331 -475.77951981 329.91123349 -474.8359375 324.828125 C-474.1759375 324.828125 -473.5159375 324.828125 -472.8359375 324.828125 C-473.0628125 324.003125 -473.2896875 323.178125 -473.5234375 322.328125 C-473.87720237 318.36595843 -473.10394445 316.35563021 -471.59765625 312.77734375 C-470.58445885 310.18459759 -470.26258868 307.57088257 -469.8359375 304.828125 C-469.0234375 302.515625 -469.0234375 302.515625 -467.8359375 299.828125 C-467.41828125 298.85746094 -467.41828125 298.85746094 -466.9921875 297.8671875 C-464.47578284 292.0835155 -461.69837535 286.44741897 -458.8359375 280.828125 C-458.1759375 280.828125 -457.5159375 280.828125 -456.8359375 280.828125 C-456.8359375 279.838125 -456.8359375 278.848125 -456.8359375 277.828125 C-456.1759375 277.828125 -455.5159375 277.828125 -454.8359375 277.828125 C-454.7534375 277.10625 -454.6709375 276.384375 -454.5859375 275.640625 C-453.67879919 272.23885632 -452.23582871 270.37346416 -449.8359375 267.828125 C-449.1759375 267.828125 -448.5159375 267.828125 -447.8359375 267.828125 C-447.7121875 266.9928125 -447.7121875 266.9928125 -447.5859375 266.140625 C-446.59698209 263.09134581 -444.98836284 261.17622537 -442.8359375 258.828125 C-442.1759375 258.828125 -441.5159375 258.828125 -440.8359375 258.828125 C-440.5884375 258.27125 -440.3409375 257.714375 -440.0859375 257.140625 C-437.15509883 251.71857346 -432.82479283 247.40388091 -427.8359375 243.828125 C-427.1759375 243.828125 -426.5159375 243.828125 -425.8359375 243.828125 C-425.54396484 242.99087891 -425.54396484 242.99087891 -425.24609375 242.13671875 C-423.24679709 238.86363198 -420.37704877 237.02626022 -417.2734375 234.890625 C-416.63865479 234.44605957 -416.00387207 234.00149414 -415.34985352 233.54345703 C-411.40659179 230.81501071 -407.41609321 228.32811863 -403.16796875 226.09765625 C-400.190364 224.47668214 -397.33704955 222.68523781 -394.4609375 220.890625 C-389.70168085 217.94285012 -384.90083898 215.16141034 -379.96875 212.515625 C-375.96857911 210.36091948 -371.99523936 208.15958946 -368.0234375 205.953125 C-367.2490332 205.52306152 -366.47462891 205.09299805 -365.67675781 204.64990234 C-360.8988567 201.99095737 -356.1401103 199.30109205 -351.3984375 196.578125 C-347.40035433 194.28301411 -343.38977233 192.0232146 -339.3359375 189.828125 C-332.77249169 186.27252478 -326.30753484 182.54711301 -319.8359375 178.828125 C-310.68635917 173.5702002 -301.48881166 168.42107188 -292.203125 163.40625 C-286.38665832 160.25213104 -280.62594854 157.01220919 -274.88745117 153.71923828 C-271.7156408 151.89968264 -268.53718963 150.09535898 -265.3359375 148.328125 C-261.5879549 146.25668914 -257.86552863 144.14185187 -254.1484375 142.015625 C-253.55377686 141.67547363 -252.95911621 141.33532227 -252.34643555 140.98486328 C-249.29986291 139.24105031 -246.25485596 137.49453501 -243.2109375 135.74609375 C-242.61369873 135.40360596 -242.01645996 135.06111816 -241.40112305 134.70825195 C-239.76039382 133.76732951 -238.120404 132.82511808 -236.48046875 131.8828125 C-233.54541728 130.21373726 -230.5837829 128.59666085 -227.6171875 126.984375 C-221.88538712 123.8662834 -216.19996375 120.67051325 -210.5234375 117.453125 C-209.51869385 116.88440674 -208.5139502 116.31568848 -207.47875977 115.72973633 C-199.33164348 111.11555063 -191.19612016 106.48143369 -183.07714844 101.81787109 C-176.19873324 97.8669539 -169.30243682 93.95996666 -162.328125 90.1796875 C-150.63425603 83.83787142 -139.06104113 77.26171817 -127.5234375 70.640625 C-122.44826913 67.72978157 -117.32903457 64.91802739 -112.17578125 62.1484375 C-110.15496095 61.00814157 -108.28500773 59.79865888 -106.3984375 58.453125 C-103.8359375 56.828125 -103.8359375 56.828125 -99.8359375 56.828125 C-99.8359375 56.168125 -99.8359375 55.508125 -99.8359375 54.828125 C-99.09134277 54.415625 -98.34674805 54.003125 -97.57958984 53.578125 C-91.61104451 50.2703677 -85.64389175 46.96010973 -79.6796875 43.64453125 C-78.54208984 43.01232666 -77.40449219 42.38012207 -76.23242188 41.72875977 C-71.67568722 39.17886189 -67.14242252 36.58981334 -62.6171875 33.984375 C-56.13347232 30.26882132 -49.59391045 26.6503942 -43.06591797 23.01342773 C-37.82999797 20.0901566 -32.62293077 17.12874319 -27.453125 14.08984375 C-23.55896362 11.8080141 -19.66198729 9.64798304 -15.5859375 7.703125 C-11.321404 5.6322586 -7.40666138 3.37555199 -3.5546875 0.61328125 C-1.8359375 -0.171875 -1.8359375 -0.171875 0 0 Z " fill="#5241C7" transform="translate(582.8359375,397.171875)"/>
<path d="M0 0 C0 182.49 0 364.98 0 553 C-11.32337866 553 -24.59470685 542.30121197 -34.16796875 536.77734375 C-37.58821954 534.80479752 -41.02194705 532.86938412 -44.5 531 C-49.80842143 528.14291968 -55.02353141 525.12832079 -60.25 522.125 C-66.97752293 518.2625422 -73.7345292 514.48796758 -80.59741211 510.87207031 C-90.48944399 505.64957745 -100.21787477 500.12990597 -109.78125 494.328125 C-115.07404638 491.15990181 -120.52029595 488.26058208 -125.9375 485.3125 C-131.51137848 482.27851906 -137.05435865 479.19045404 -142.59790039 476.1015625 C-148.83565085 472.63235667 -155.102813 469.21895558 -161.375 465.8125 C-168.11728951 462.14833786 -174.80266279 458.42464502 -181.40625 454.515625 C-185.03122765 452.39741517 -188.71755147 450.399635 -192.41015625 448.40234375 C-196.29154169 446.30065842 -200.14428475 444.14828418 -204 442 C-204.65871094 441.63519531 -205.31742188 441.27039063 -205.99609375 440.89453125 C-209.56118156 438.9199174 -213.11968368 436.93433775 -216.66796875 434.9296875 C-223.04022444 431.33120989 -229.41697973 427.75525076 -235.875 424.3125 C-240.63294148 421.77139371 -245.26179868 419.07570868 -249.8671875 416.26953125 C-252.51011218 414.6963618 -255.23802416 413.3516052 -258 412 C-260.1861661 410.80754577 -262.35850948 409.59173469 -264.53125 408.375 C-267.07296432 406.95936164 -269.62881409 405.57220061 -272.1875 404.1875 C-276.97722757 401.57975944 -281.71790696 398.89294548 -286.44702148 396.17700195 C-290.34424014 393.94042471 -294.25513778 391.730077 -298.17651367 389.53613281 C-300.86316918 388.03163103 -303.54534518 386.51931418 -306.22558594 385.00341797 C-307.77669461 384.12627754 -309.32960398 383.25232296 -310.8828125 382.37890625 C-317.06916937 378.80090361 -322.52107761 374.57684678 -328 370 C-328.58910156 369.52304687 -329.17820312 369.04609375 -329.78515625 368.5546875 C-333.0627479 365.88902473 -336.18105025 363.1505909 -339 360 C-339 359.01 -339 358.02 -339 357 C-340.32 356.34 -341.64 355.68 -343 355 C-343 354.34 -343 353.68 -343 353 C-343.66 353 -344.32 353 -345 353 C-345 352.01 -345 351.02 -345 350 C-345.66 350 -346.32 350 -347 350 C-349 347 -349 347 -349 344 C-349.99 343.67 -350.98 343.34 -352 343 C-356.203537 337.16928739 -359.5793254 329.7433078 -362 323 C-361.67 322.34 -361.34 321.68 -361 321 C-361.66 321 -362.32 321 -363 321 C-363.73080266 319.02253397 -364.39421747 317.01927511 -365 315 C-364.67 314.34 -364.34 313.68 -364 313 C-364.66 313 -365.32 313 -366 313 C-366.47959778 310.77092605 -366.9586608 308.54173703 -367.4375 306.3125 C-367.70433594 305.07113281 -367.97117187 303.82976562 -368.24609375 302.55078125 C-368.49488281 301.37902344 -368.74367188 300.20726562 -369 299 C-369.17660156 298.20980469 -369.35320313 297.41960937 -369.53515625 296.60546875 C-370.89206192 288.99995545 -371.18227372 281.46398961 -371.1875 273.75 C-371.19974609 272.78320312 -371.21199219 271.81640625 -371.22460938 270.8203125 C-371.23448464 266.04068507 -371.12040124 262.374899 -369 258 C-369 256.88625 -369 255.7725 -369 254.625 C-369 250.67780097 -368.20412268 247.74615946 -367 244 C-366.71125 242.9275 -366.4225 241.855 -366.125 240.75 C-364.03768347 233.79227823 -361.85733425 227.18322066 -358 221 C-357.47921875 220.07703125 -356.9584375 219.1540625 -356.421875 218.203125 C-352.80233645 211.80973449 -349.11149919 205.34077488 -344 200 C-343.34 200 -342.68 200 -342 200 C-342 199.01 -342 198.02 -342 197 C-341.38125 196.7525 -340.7625 196.505 -340.125 196.25 C-337.89026016 195.20539451 -337.89026016 195.20539451 -337.1640625 193.2109375 C-332.10891308 183.60954632 -316.7943716 173.48991477 -307 169 C-298.86107352 165.04392738 -290.96179812 160.77317918 -283.13574219 156.23486328 C-278.82888109 153.74468227 -274.50690245 151.28083824 -270.1875 148.8125 C-269.31617432 148.31347168 -268.44484863 147.81444336 -267.54711914 147.30029297 C-262.73665537 144.54844962 -257.90956554 141.83035783 -253.0612793 139.14575195 C-250.1311587 137.51705884 -247.22118555 135.85411717 -244.3125 134.1875 C-243.72364014 133.85057129 -243.13478027 133.51364258 -242.52807617 133.16650391 C-239.4754748 131.41973082 -236.42473048 129.66974846 -233.375 127.91796875 C-228.21436227 124.9569471 -223.05134008 122.00903579 -217.8125 119.1875 C-212.72830548 116.43948912 -207.74151604 113.53647112 -202.75 110.625 C-196.25969023 106.84101006 -189.71862873 103.20082561 -183.0690918 99.70532227 C-178.85899151 97.483786 -174.77822362 95.11195095 -170.71875 92.62890625 C-161.92982684 87.36312901 -152.9053234 82.47717556 -143.90234375 77.58984375 C-134.50840053 72.44403636 -125.20276154 67.14424503 -115.9609375 61.73046875 C-106.19317032 56.02186603 -96.32661025 50.513061 -86.40454102 45.07836914 C-81.38859649 42.3268556 -76.39658917 39.54017825 -71.4375 36.6875 C-64.80517031 32.87429874 -58.09820787 29.21327547 -51.3671875 25.578125 C-43.84539308 21.49925106 -36.41822257 17.26297858 -29 13 C-25.45060453 10.96029349 -21.89937107 8.92434746 -18.33984375 6.90234375 C-16.15703768 5.65903784 -13.98211585 4.40175889 -11.81640625 3.12890625 C-10.84574219 2.57074219 -9.87507813 2.01257813 -8.875 1.4375 C-8.02679687 0.94121094 -7.17859375 0.44492187 -6.3046875 -0.06640625 C-4 -1 -4 -1 0 0 Z " fill="#588ADB" transform="translate(973,1)"/>
<path d="M0 0 C0 4.3417799 -2.21168144 6.79303871 -5 10 C-7.3125 11.4375 -7.3125 11.4375 -9 12 C-7.54718935 6.67302761 -3.91888622 3.63597198 0 0 Z " fill="#312CBE" transform="translate(578,647)"/>
<path d="M0 0 C0 0.99 0 1.98 0 3 C-3 5.1875 -3 5.1875 -6 7 C-6.99 6.34 -7.98 5.68 -9 5 C-6.03 3.35 -3.06 1.7 0 0 Z " fill="#3AC3EC" transform="translate(942,15)"/>
<path d="M0 0 C3.465 1.98 3.465 1.98 7 4 C6.34 4.66 5.68 5.32 5 6 C1.535 4.02 1.535 4.02 -2 2 C-1.34 1.34 -0.68 0.68 0 0 Z " fill="#3008AD" transform="translate(221,877)"/>
<path d="M0 0 C2.4750171 1.11431765 4.67883419 2.58150978 7 4 C7 4.66 7 5.32 7 6 C3.54074837 4.7508258 0.85306797 3.32472205 -2 1 C-1.34 0.67 -0.68 0.34 0 0 Z " fill="#3447CA" transform="translate(690,396)"/>
<path d="M0 0 C1.98 0.99 3.96 1.98 6 3 C5.67 3.99 5.34 4.98 5 6 C3.02 4.68 1.04 3.36 -1 2 C-0.67 1.34 -0.34 0.68 0 0 Z " fill="#340897" transform="translate(206,869)"/>
<path d="" fill="#00007F" transform="translate(0,0)"/>
<path d="" fill="#0000FF" transform="translate(0,0)"/>
<path d="" fill="#000000" transform="translate(0,0)"/>
<path d="" fill="#000000" transform="translate(0,0)"/>
<path d="" fill="#000000" transform="translate(0,0)"/>
<path d="" fill="#0000FF" transform="translate(0,0)"/>
</svg>
